<svg xmlns="http://www.w3.org/2000/svg" viewBox="0 0 100 100">
  <defs>
    <linearGradient id="body" x1="0" y1="0" x2="0.3" y2="1">
      <stop offset="0%" stop-color="#a78bfa"/>
      <stop offset="100%" stop-color="#7c3aed"/>
    </linearGradient>
    <linearGradient id="leaf" x1="0" y1="0" x2="0" y2="1">
      <stop offset="0%" stop-color="#34d399"/>
      <stop offset="100%" stop-color="#10b981"/>
    </linearGradient>
  </defs>
  <!-- Background circle -->
  <circle cx="50" cy="50" r="50" fill="#07040f"/>
  <!-- Leaves -->
  <ellipse cx="36" cy="26" rx="8" ry="16" fill="url(#leaf)" transform="rotate(-20,36,26)" opacity="0.95"/>
  <ellipse cx="50" cy="18" rx="7" ry="18" fill="url(#leaf)"/>
  <ellipse cx="64" cy="26" rx="8" ry="16" fill="url(#leaf)" transform="rotate(20,64,26)" opacity="0.95"/>
  <!-- Body -->
  <path d="M28 38Q24 62 32 84Q42 98 50 100Q58 98 68 84Q76 62 72 38Q67 30 50 28Q33 30 28 38Z" fill="url(#body)"/>
  <!-- Eyes -->
  <circle cx="42" cy="56" r="5" fill="white"/>
  <circle cx="58" cy="56" r="5" fill="white"/>
  <circle cx="44" cy="55" r="2.5" fill="#1E1B4B"/>
  <circle cx="60" cy="55" r="2.5" fill="#1E1B4B"/>
  <circle cx="45" cy="54" r="1" fill="white"/>
  <circle cx="61" cy="54" r="1" fill="white"/>
  <!-- Smile -->
  <path d="M42 68Q50 76 58 68" stroke="#1E1B4B" stroke-width="2" fill="none" stroke-linecap="round"/>
  <!-- Blush -->
  <circle cx="34" cy="63" r="4" fill="#c4b5fd" opacity="0.35"/>
  <circle cx="66" cy="63" r="4" fill="#c4b5fd" opacity="0.35"/>
</svg>
